<svg version="1.1" id="Livello_1" xmlns="http://www.w3.org/2000/svg" xmlns:xlink="http://www.w3.org/1999/xlink" x="0" y="0" viewBox="0 0 444 686" xml:space="preserve"><style></style><defs><path id="SVGID_1_" d="M43.1 38.1h358.8V648H43.1z"/></defs><clipPath id="SVGID_00000077319454830307382500000016258629438071078075_"><use xlink:href="#SVGID_1_" overflow="visible"/></clipPath><path d="M128 38.1h256c9.9 0 17.9 8 17.9 17.9v448.4c0 9.9-8 17.9-17.9 17.9h-98.7V181.5c0-15.6-9.2-33.7-21.7-43L128 38.1zM50.4 518.9c-4.6-3.4-7.3-8.7-7.3-14.4V56c0-14.7 16.7-23.2 28.6-14.4l170.4 125.6c4.6 3.4 7.3 8.7 7.3 14.4V630c0 14.7-16.7 23.2-28.6 14.4L50.4 518.9z" clip-path="url(#SVGID_00000077319454830307382500000016258629438071078075_)" fill="#ffce00"/></svg>